<?xml version="1.0" encoding="utf-8"?>
<!-- Generator: Adobe Illustrator 22.1.0, SVG Export Plug-In . SVG Version: 6.00 Build 0)  -->
<svg version="1.1"
	 id="Layer_1" inkscape:version="0.92.2 (5c3e80d, 2017-08-06)" sodipodi:docname="google_maps-icon.svg" xmlns:cc="http://creativecommons.org/ns#" xmlns:dc="http://purl.org/dc/elements/1.1/" xmlns:inkscape="http://www.inkscape.org/namespaces/inkscape" xmlns:rdf="http://www.w3.org/1999/02/22-rdf-syntax-ns#" xmlns:sodipodi="http://sodipodi.sourceforge.net/DTD/sodipodi-0.dtd" xmlns:svg="http://www.w3.org/2000/svg"
	 xmlns="http://www.w3.org/2000/svg" xmlns:xlink="http://www.w3.org/1999/xlink" x="0px" y="0px" width="50px" height="50px"
	 viewBox="0 0 50 50" style="enable-background:new 0 0 50 50;" xml:space="preserve">
<style type="text/css">
	.st0{fill:#1EA361;}
	.st1{fill:#FEDB43;}
	.st2{fill:#5384C4;}
	.st3{fill:#FFFFFF;}
	.st4{fill:#C2C2C1;}
	.st5{fill:#EFEFEF;}
	.st6{fill:#DC4B3E;}
	.st7{fill:#802C27;}
</style>
<sodipodi:namedview  bordercolor="#666666" borderopacity="1" gridtolerance="10" guidetolerance="10" id="namedview43" inkscape:current-layer="Layer_1" inkscape:cx="43.769751" inkscape:cy="23.900762" inkscape:pageopacity="0" inkscape:pageshadow="2" inkscape:window-height="1001" inkscape:window-maximized="1" inkscape:window-width="1920" inkscape:window-x="-9" inkscape:window-y="-9" inkscape:zoom="14.164643" objecttolerance="10" pagecolor="#ffffff" showgrid="false" showguides="false">
	</sodipodi:namedview>
<path id="path2" inkscape:connector-curvature="0" class="st0" d="M1,44.7V10.5c0-2,1.6-3.6,3.7-3.6h34.8L1,44.7z"/>
<path id="path4" inkscape:connector-curvature="0" class="st1" d="M1,45.4v-0.7L39.4,6.9h0.7c2,0,3.7,1.6,3.7,3.6v0.7L5.4,49H4.7
	C2.6,49,1,47.4,1,45.4"/>
<polygon id="polygon6" class="st2" points="5.4,49 22.4,32.3 39.4,49 "/>
<path id="path8" inkscape:connector-curvature="0" sodipodi:nodetypes="ccccsscc" class="st3" d="M39.4,49l-17-16.7l4.4-4.3l17,16.7
	v0.7c0,2-1.6,3.6-3.7,3.6L39.4,49L39.4,49z"/>
<polygon id="polygon10" class="st4" points="43.8,44.7 26.8,28 43.8,11.2 "/>
<path id="path12" inkscape:connector-curvature="0" class="st5" d="M8.6,11.6c2.2-1,4.9-0.6,6.7,1c-0.6,0.6-1.1,1.1-1.7,1.6
	c-1.8-1.7-5.1-0.9-5.9,1.4c-1.1,2.2,0.7,5.2,3.3,5.2c1.7,0.2,3.3-0.9,3.7-2.5c-1.2,0-2.3,0-3.5,0c0-0.7,0-1.4,0-2.1
	c1.9,0,3.9-0.1,5.9,0.1c0.1,1.4,0,2.9-0.7,4.1c-1.2,2.2-4,3.2-6.4,2.6c-3-0.6-5.2-3.6-4.8-6.6C5.3,14.3,6.7,12.4,8.6,11.6"/>
<path id="path14" inkscape:connector-curvature="0" class="st6" d="M36.3,1h1.4c3.5,0.2,6.9,1.9,9,4.6c1.4,1.7,2.1,3.9,2.3,6.1v0.8
	c-0.1,4.2-2.8,7.7-5.2,11c-2.7,3.7-5.1,7.8-5.8,12.3c-0.2,0.8,0,1.9-0.9,2.2c-0.2-0.2-0.5-0.3-0.6-0.5c-0.3-2.6-0.9-5.1-2-7.4
	c-1.3-2.7-3-5.2-4.8-7.6c-1.1-1.4-2.1-2.9-3-4.5c-1.3-2.4-1.8-5.2-1.3-7.9c0.4-2.1,1.6-4.1,3.1-5.6C30.6,2.4,33.4,1.2,36.3,1
	 M36.1,8.4c-1.6,0.4-3,1.8-3.2,3.5c-0.2,1.6,0.8,3.1,2.2,3.8c1.5,0.8,3.6,0.6,4.9-0.6c1.2-1,1.6-2.8,1-4.3C40.2,9,38,8,36.1,8.4"/>
<path id="path16" inkscape:connector-curvature="0" class="st7" d="M36.1,8.4C38,8,40.2,9,40.9,10.8c0.6,1.5,0.2,3.3-1,4.3
	c-1.3,1.2-3.3,1.4-4.9,0.6c-1.4-0.7-2.3-2.3-2.2-3.8C33,10.2,34.4,8.8,36.1,8.4"/>
</svg>
