<?xml version="1.0" encoding="utf-8"?>
<!-- Generator: Adobe Illustrator 16.0.0, SVG Export Plug-In . SVG Version: 6.00 Build 0)  -->
<!DOCTYPE svg PUBLIC "-//W3C//DTD SVG 1.1//EN" "http://www.w3.org/Graphics/SVG/1.1/DTD/svg11.dtd">
<svg version="1.1" id="Layer_1" xmlns="http://www.w3.org/2000/svg" xmlns:xlink="http://www.w3.org/1999/xlink" x="0px" y="0px"
	 width="283.372px" height="59.982px" viewBox="0 0 283.372 59.982" enable-background="new 0 0 283.372 59.982"
	 xml:space="preserve">
<g>
	<defs>
		<rect id="SVGID_1_" width="283.372" height="59.982"/>
	</defs>
	<clipPath id="SVGID_2_">
		<use xlink:href="#SVGID_1_"  overflow="visible"/>
	</clipPath>
	<path clip-path="url(#SVGID_2_)" d="M174.707,46.399l-4.06,13.258h-2.182l0.413-1.349c-0.512,0.526-1.116,0.936-1.813,1.231
		c-0.699,0.295-1.378,0.442-2.038,0.442c-0.72,0-1.338-0.147-1.857-0.442c-0.52-0.296-0.928-0.705-1.223-1.231
		c-0.271-0.485-0.433-1.043-0.479-1.674c-0.046-0.63,0.029-1.268,0.227-1.91c0.106-0.351,0.234-0.685,0.386-1.004
		c0.15-0.318,0.332-0.634,0.545-0.95c0.418-0.62,0.929-1.182,1.533-1.687c0.604-0.507,1.284-0.913,2.039-1.224
		c0.755-0.309,1.469-0.464,2.141-0.464c0.584,0,1.114,0.115,1.589,0.346c0.477,0.231,0.832,0.563,1.067,0.995l1.329-4.338H174.707z
		 M169.948,54.671c0.25-0.818,0.173-1.514-0.233-2.085c-0.405-0.573-1.018-0.859-1.836-0.859c-0.765,0-1.524,0.29-2.277,0.872
		c-0.754,0.581-1.247,1.254-1.482,2.02c-0.255,0.836-0.194,1.55,0.182,2.143s0.977,0.889,1.799,0.889
		c0.813,0,1.595-0.29,2.345-0.872C169.195,56.198,169.696,55.496,169.948,54.671"/>
	<path clip-path="url(#SVGID_2_)" d="M195.612,49.396c1.443,0,2.514,0.52,3.212,1.56c0.349,0.521,0.554,1.089,0.614,1.708
		c0.063,0.62-0.02,1.3-0.248,2.043c-0.446,1.46-1.347,2.704-2.701,3.733c-1.355,1.028-2.763,1.542-4.224,1.542
		c-1.431,0-2.509-0.518-3.23-1.551c-0.725-1.034-0.864-2.276-0.421-3.725c0.454-1.483,1.362-2.739,2.724-3.769
		C192.697,49.91,194.123,49.396,195.612,49.396 M194.793,51.727c-0.175,0-0.362,0.021-0.563,0.062
		c-0.199,0.041-0.405,0.105-0.618,0.192c-0.411,0.158-0.792,0.372-1.145,0.644c-0.352,0.272-0.653,0.588-0.904,0.946
		c-0.25,0.36-0.435,0.738-0.557,1.136c-0.249,0.812-0.184,1.505,0.196,2.081c0.378,0.575,0.971,0.863,1.776,0.863
		c0.83,0,1.609-0.282,2.34-0.846c0.731-0.563,1.224-1.265,1.479-2.099c0.254-0.83,0.187-1.534-0.203-2.111
		C196.207,52.017,195.604,51.727,194.793,51.727"/>
	<path clip-path="url(#SVGID_2_)" d="M222.165,49.396c1.443,0,2.514,0.52,3.212,1.56c0.349,0.521,0.554,1.089,0.614,1.708
		c0.063,0.62-0.02,1.3-0.248,2.043c-0.446,1.46-1.347,2.704-2.701,3.733c-1.355,1.028-2.763,1.542-4.224,1.542
		c-1.431,0-2.509-0.518-3.23-1.551c-0.725-1.034-0.864-2.276-0.421-3.725c0.453-1.483,1.362-2.739,2.724-3.769
		C219.25,49.91,220.676,49.396,222.165,49.396 M221.346,51.727c-0.175,0-0.362,0.021-0.563,0.062
		c-0.199,0.041-0.405,0.105-0.618,0.192c-0.411,0.158-0.792,0.372-1.145,0.644c-0.352,0.272-0.653,0.588-0.904,0.946
		c-0.25,0.36-0.435,0.738-0.557,1.136c-0.249,0.812-0.184,1.505,0.196,2.081c0.378,0.575,0.971,0.863,1.776,0.863
		c0.83,0,1.609-0.282,2.339-0.846c0.732-0.563,1.225-1.265,1.48-2.099c0.254-0.83,0.186-1.534-0.203-2.111
		C222.76,52.017,222.157,51.727,221.346,51.727"/>
	<path clip-path="url(#SVGID_2_)" d="M240.646,59.658l3.045-9.946h2.164l-0.276,0.903c0.417-0.427,0.828-0.736,1.232-0.931
		c0.401-0.191,0.841-0.288,1.313-0.288h0.185l-0.708,2.313c-0.134,0-0.267,0.009-0.394,0.026c-0.128,0.018-0.27,0.05-0.424,0.097
		c-0.256,0.07-0.515,0.184-0.78,0.342c-0.365,0.239-0.661,0.557-0.888,0.955c-0.139,0.262-0.287,0.651-0.444,1.165l-1.642,5.363
		H240.646z"/>
	<path clip-path="url(#SVGID_2_)" d="M269.952,52.446h-2.331c0.036-0.233-0.013-0.413-0.148-0.535
		c-0.134-0.123-0.315-0.184-0.543-0.184c-0.263,0-0.508,0.073-0.732,0.219c-0.227,0.146-0.38,0.354-0.462,0.622
		c-0.086,0.28,0.008,0.505,0.282,0.675c0.086,0.047,0.342,0.146,0.768,0.299c0.642,0.216,1.089,0.396,1.342,0.543
		c0.421,0.244,0.709,0.547,0.862,0.902c0.173,0.426,0.166,0.949-0.024,1.568c-0.283,0.923-0.861,1.718-1.737,2.383
		c-0.422,0.31-0.895,0.563-1.419,0.755c-0.522,0.192-1.016,0.289-1.477,0.289c-1.034,0-1.796-0.322-2.286-0.964
		c-0.49-0.643-0.579-1.469-0.27-2.48h2.437c-0.035,0.34,0.022,0.603,0.169,0.789c0.168,0.216,0.419,0.324,0.752,0.324
		c0.304,0,0.589-0.083,0.86-0.25c0.27-0.167,0.451-0.401,0.544-0.705c0.106-0.345-0.006-0.637-0.336-0.876
		c-0.058-0.041-0.161-0.093-0.313-0.153c-0.15-0.062-0.366-0.148-0.648-0.259c-0.451-0.165-0.733-0.273-0.844-0.334
		c-0.256-0.122-0.483-0.3-0.687-0.535c-0.478-0.535-0.587-1.228-0.328-2.075c0.274-0.895,0.84-1.636,1.698-2.226
		c0.82-0.562,1.685-0.842,2.598-0.842c0.829,0,1.479,0.301,1.949,0.902C270.098,50.901,270.206,51.616,269.952,52.446"/>
	<path clip-path="url(#SVGID_2_)" fill-rule="evenodd" clip-rule="evenodd" fill="#98272B" d="M33.371,37.489l-0.192-0.005
		l-1.466,0.092l-0.061,0.007H5.378l-0.321-0.058c-1.412-0.491-2.523-1.104-3.32-1.835c-0.886-0.813-1.407-1.779-1.552-2.883
		c-0.256-1.252-0.246-2.749,0.025-4.478c0.054-0.349,0.12-0.702,0.192-1.05c0.062-0.3,0.147-0.664,0.253-1.087v-0.005l0.05-0.197
		l0.032-0.113L7.059,7.789l0.073-0.167C7.38,7.141,7.689,6.661,8.05,6.199c0.346-0.44,0.758-0.898,1.231-1.349l0.004-0.006
		c0.446-0.428,0.92-0.843,1.403-1.236c0.494-0.397,1.001-0.771,1.513-1.11c0.533-0.353,1.044-0.673,1.522-0.949h0.007
		c0.523-0.3,1.022-0.565,1.479-0.782c0.412-0.199,0.799-0.359,1.159-0.481h0.009l0.186-0.059l0.027-0.01
		c0.446-0.129,0.864-0.204,1.238-0.209l0.011-0.005h0.035h33.02H52.5L51.913,1.67l-2.911,8.238l-0.275,0.775h-0.742H19.913
		c-0.47,0.18-0.906,0.389-1.302,0.624v0.006c-0.431,0.255-0.817,0.539-1.137,0.836l0.002,0.002c-0.494,0.463-0.96,1.007-1.38,1.624
		l-0.242,0.371l-0.192,0.321l-3.557,10.044c-0.076,0.395-0.116,0.731-0.117,0.997h0.001l0.013,0.237
		c0.008,0.085,0.025,0.163,0.039,0.212l0.031,0.075v0.005c0.092,0.176,0.36,0.395,0.798,0.645v0.003l0.325,0.173l0.001-0.003
		l0.285,0.137h15.898v0.005c0.418-0.028,0.805-0.113,1.137-0.239v-0.006c0.33-0.127,0.628-0.307,0.882-0.534
		c0.31-0.276,0.553-0.521,0.715-0.726c0.116-0.147,0.191-0.26,0.215-0.335l0.038-0.101c0.089-0.217,0.161-0.483,0.212-0.79
		l0.028-0.206l0.028-0.294l0.023-0.395H21.496h-1.597l0.579-1.657l2.344-6.724l0.272-0.784h0.747h18.961
		c0.813,0,1.507,0.294,2.072,0.862l0.005,0.005c0.109,0.111,0.214,0.235,0.304,0.356l0.016,0.031
		c0.088,0.124,0.179,0.256,0.249,0.382l0.023,0.036l0.014,0.028l-0.006,0.006c0.329,0.604,0.579,1.29,0.735,2.059l0.008,0.037
		l0.072,0.407l0.008,0.068l0.054,0.43l0.004,0.044l0.013,0.14c0.052,0.586,0.066,1.197,0.048,1.811
		c-0.02,0.607-0.075,1.232-0.164,1.859v0.005c-0.087,0.619-0.193,1.2-0.311,1.727c-0.12,0.539-0.266,1.045-0.423,1.502v0.01
		c-0.226,0.64-0.511,1.304-0.843,1.975c-0.32,0.652-0.699,1.326-1.123,2.013v0.005c-0.605,0.968-1.283,1.884-2.026,2.734
		l-0.012,0.016l-0.417,0.459l-0.024,0.028l-0.428,0.444l-0.027,0.025l-0.016,0.016c-0.568,0.562-1.135,1.071-1.701,1.507
		c-0.569,0.441-1.182,0.85-1.82,1.213v0.002c-0.499,0.287-1.01,0.522-1.517,0.688l-0.017,0.005l-0.277,0.085l-0.028,0.011
		c-0.611,0.173-1.236,0.258-1.858,0.253H33.371z"/>
	<path clip-path="url(#SVGID_2_)" fill-rule="evenodd" clip-rule="evenodd" fill="#98272B" d="M282.791,1.67l-12.286,35.132
		l-0.273,0.78h-0.742h-39.555h-1.603l0.586-1.664l2.628-7.483l0.273-0.78h0.745h30.421l1.505-4.375h-18.933l-0.401-0.09
		c-1.17-0.519-2.166-1.164-2.979-1.928c-0.84-0.79-1.487-1.709-1.931-2.746h-0.002c-0.556-1.275-1.01-2.684-1.355-4.207
		c-0.166-0.728-0.314-1.5-0.44-2.287l-0.004-0.005c-0.118-0.743-0.217-1.526-0.291-2.328V9.684c-0.077-0.821-0.121-1.65-0.133-2.472
		V7.195l0.003-0.776V6.38l0.019-0.584V5.769l0.036-0.729V5.023c0.066-1.046,0.209-2.037,0.423-2.961l0.006-0.031l0.126-0.503
		l0.013-0.042l0.145-0.485l0.011-0.039l0.051-0.152l0.262-0.807h0.764h10.081h1.189l-0.098,1.321
		c-0.124,1.662-0.217,3.051-0.276,4.174v0.005l-0.032,0.725l-0.029,0.668l-0.016,0.39h-0.002c-0.026,0.841-0.023,1.508,0.013,1.967
		h0.005l0.039,0.34l0.021,0.109l0.011,0.036c0.132,0.328,0.258,0.686,0.358,1.078l0.004,0.021l0.056,0.233l0.01,0.033l0.054,0.243
		v0.018l0.01,0.062c0.056,0.271,0.117,0.542,0.185,0.803h0.002c0.076,0.281,0.156,0.549,0.233,0.787
		c0.074,0.222,0.156,0.439,0.25,0.632l0.005,0.005l-0.002,0.003c0.082,0.173,0.173,0.333,0.266,0.465
		c0.041,0.059,0.098,0.09,0.162,0.09v-0.005h15.375l4.7-13.424l0.271-0.779h0.746h8.308h1.599L282.791,1.67z"/>
	<polygon clip-path="url(#SVGID_2_)" fill-rule="evenodd" clip-rule="evenodd" fill="#98272B" points="177.516,35.38 
		197.365,18.947 189.48,1.781 188.664,0.003 190.451,0.003 203.939,0.003 204.579,0.005 204.895,0.632 209.694,10.234 
		222.121,0.237 222.76,0.003 233.554,0.003 234.186,2.219 214.534,17.778 223.638,35.764 224.557,37.583 222.689,37.583 
		207.493,37.583 206.858,37.583 206.544,36.96 201.813,27.627 189.595,37.352 188.96,37.583 178.165,37.583 	"/>
	<path clip-path="url(#SVGID_2_)" fill-rule="evenodd" clip-rule="evenodd" fill="#98272B" d="M139.501,37.58h-8.097h-1.6
		l0.583-1.665l9.728-27.843l0.112-0.233c0.452-0.748,0.995-1.473,1.628-2.17l0.013-0.016l0.354-0.377l0.025-0.028l0.375-0.372
		l0.036-0.031V4.842c0.482-0.46,0.967-0.893,1.455-1.299l0.005-0.005c0.483-0.395,0.979-0.774,1.482-1.125v0.002
		c0.704-0.495,1.407-0.929,2.088-1.29L147.7,1.12l0.378-0.196l0.028-0.016l0.378-0.181l0.023-0.01l0.025-0.01V0.706
		c0.483-0.22,0.942-0.391,1.367-0.509h0.008C150.363,0.067,150.778,0,151.146,0h33.09h1.601l-0.58,1.668L172.971,36.8l-0.274,0.781
		l-0.743-0.002h-8.522h-1.603l0.583-1.665l2.542-7.237h-21.582L140.52,36.8l-0.275,0.779H139.501z M146.584,19.415h21.57l3.05-8.729
		h-18.002c-0.677,0.194-1.27,0.405-1.765,0.638c-0.491,0.224-0.896,0.469-1.203,0.725l0.002,0.002
		c-0.451,0.377-0.908,0.909-1.36,1.583l-0.269,0.417l-0.252,0.431L146.584,19.415z"/>
	<path clip-path="url(#SVGID_2_)" fill-rule="evenodd" clip-rule="evenodd" fill="#98272B" d="M95.469,26.419l8.938-25.631
		l0.271-0.785h0.747h8.664h1.597l-0.581,1.667l-8.465,24.177c-0.009,0.596,0.217,1.05,0.665,1.362v-0.002l0.004,0.002
		c0.123,0.085,0.265,0.163,0.421,0.232c0.179,0.078,0.372,0.158,0.564,0.212v-0.005l0.025,0.007h19.899h1.602l-0.583,1.665
		l-2.628,7.482l-0.276,0.779h-0.742h-24.285c-0.497,0-1.001-0.1-1.492-0.297l-0.004-0.002c-0.481-0.194-0.942-0.475-1.384-0.834
		l-0.009-0.008c-0.603-0.501-1.148-1.101-1.615-1.801l-0.017-0.024l-0.229-0.366l-0.034-0.057l-0.214-0.387l-0.011-0.019
		l-0.012-0.022l-0.004-0.009c-0.391-0.746-0.702-1.541-0.923-2.377l-0.009-0.03l-0.108-0.446l-0.009-0.049l-0.092-0.455
		l-0.007-0.036l-0.013-0.072c-0.114-0.664-0.138-1.324-0.086-1.964v-0.006c0.06-0.652,0.207-1.29,0.433-1.902H95.469z"/>
	<path clip-path="url(#SVGID_2_)" fill-rule="evenodd" clip-rule="evenodd" fill="#98272B" d="M55.01,37.58h-8.095h-1.601
		l0.583-1.665l9.73-27.843l0.111-0.233c0.448-0.746,0.991-1.471,1.626-2.17l0.013-0.016l0.353-0.377l0.033-0.028l0.375-0.372
		l0.035-0.031l-0.002-0.002c0.95-0.911,1.93-1.722,2.937-2.424h-0.003c0.709-0.498,1.412-0.932,2.093-1.293l0.01-0.005l0.38-0.196
		l0.028-0.016l0.38-0.181l0.023-0.01l0.026-0.01V0.706c0.486-0.223,0.942-0.391,1.365-0.509h0.009C65.872,0.067,66.29,0,66.657,0
		h33.089l1.599,0.003l-0.581,1.665L88.482,36.8l-0.274,0.781l-0.744-0.002h-8.523h-1.603l0.585-1.665l2.541-7.237H58.882
		L56.028,36.8l-0.276,0.779H55.01z M62.094,19.415h21.569l3.051-8.729H68.709c-0.674,0.194-1.267,0.405-1.764,0.638
		c-0.493,0.224-0.897,0.472-1.204,0.727c-0.445,0.377-0.898,0.901-1.344,1.559l-0.281,0.441l-0.254,0.431L62.094,19.415z"/>
</g>
</svg>
