<?xml version="1.0" encoding="utf-8"?>
<!-- Generator: Adobe Illustrator 16.0.0, SVG Export Plug-In . SVG Version: 6.00 Build 0)  -->
<!DOCTYPE svg PUBLIC "-//W3C//DTD SVG 1.1//EN" "http://www.w3.org/Graphics/SVG/1.1/DTD/svg11.dtd">
<svg version="1.1" id="Í_xBC__xB2_ã_x5F_1" xmlns="http://www.w3.org/2000/svg" xmlns:xlink="http://www.w3.org/1999/xlink"
	 x="0px" y="0px" width="500px" height="500px" viewBox="0 0 500 500" enable-background="new 0 0 500 500" xml:space="preserve">
<path opacity="0.1" fill="#FFFFFF" enable-background="new    " d="M14.8,174.8l50.9-90.2c12-21.4,32.9-36.3,57-41l140.3-27
	c13.8-2.7,28-1.8,41.4,2.5l130.8,42.1c34.7,11.2,58.1,43.5,57.899,80L492.2,313.7c-0.101,25.8-12.2,50.1-32.7,65.8l-118.8,91.1
	c-20.3,15.5-46.5,21-71.3,14.7L104,443.6c-29.8-7.5-53-30.8-60.5-60.6l-37-146.8C1.3,215.4,4.3,193.4,14.8,174.8z"/>
</svg>
