<?xml version="1.0" encoding="utf-8"?>
<!-- Generator: Adobe Illustrator 16.0.0, SVG Export Plug-In . SVG Version: 6.00 Build 0)  -->
<!DOCTYPE svg PUBLIC "-//W3C//DTD SVG 1.1//EN" "http://www.w3.org/Graphics/SVG/1.1/DTD/svg11.dtd">
<svg version="1.1" id="Layer_1" xmlns="http://www.w3.org/2000/svg" xmlns:xlink="http://www.w3.org/1999/xlink" x="0px" y="0px"
	 width="40px" height="40px" viewBox="0 0 40 40" enable-background="new 0 0 40 40" xml:space="preserve">
<path fill="#FFFFFF" d="M8.645,14.351h17.378l1.401-5.789h3.899V9.39h-3.249L24.044,26.02c0.858,0.25,1.491,1.035,1.491,1.977
	c0,1.143-0.926,2.066-2.067,2.066S21.4,29.137,21.4,27.996c0-0.469,0.162-0.895,0.423-1.24h-5.807
	c0.262,0.348,0.422,0.771,0.422,1.24c0,1.143-0.925,2.066-2.067,2.066s-2.067-0.926-2.067-2.066s0.925-2.066,2.067-2.066h8.843
	l0.401-1.654H12.009L8.645,14.351z M14.373,26.755c-0.684,0-1.241,0.558-1.241,1.24c0,0.685,0.557,1.239,1.241,1.239
	s1.24-0.555,1.24-1.239C15.613,27.313,15.056,26.755,14.373,26.755 M23.469,26.755c-0.684,0-1.24,0.558-1.24,1.24
	c0,0.685,0.557,1.239,1.24,1.239s1.24-0.555,1.24-1.239C24.709,27.313,24.152,26.755,23.469,26.755"/>
</svg>
