<?xml version="1.0" encoding="utf-8"?>
<!-- Generator: Adobe Illustrator 22.1.0, SVG Export Plug-In . SVG Version: 6.00 Build 0)  -->
<svg version="1.1" id="Layer_1" xmlns="http://www.w3.org/2000/svg" xmlns:xlink="http://www.w3.org/1999/xlink" x="0px" y="0px"
	 width="60px" height="60px" viewBox="0 0 60 60" style="enable-background:new 0 0 60 60;" xml:space="preserve">
<style type="text/css">
	.st0{fill:#6F6F6F;}
</style>
<g>
	<path class="st0" d="M42.9,4.5H18.3c-7.6,0-13.7,6.1-13.7,13.7v23.5c0,7.6,6.1,13.7,13.7,13.7h24.6c7.6,0,13.7-6.1,13.7-13.7V18.1
		C56.6,10.6,50.5,4.5,42.9,4.5z M51.9,41.3c0,5.2-4.3,9.5-9.5,9.5H18.7c-5.2,0-9.5-4.3-9.5-9.5V18.5c0-5.2,4.3-9.5,9.5-9.5h23.8
		c5.2,0,9.5,4.3,9.5,9.5V41.3z"/>
	<path class="st0" d="M30.5,16.8c-7.2,0-13.1,5.9-13.1,13.1S23.3,43,30.5,43s13.1-5.9,13.1-13.1S37.7,16.8,30.5,16.8z M30.5,38.3
		c-4.7,0-8.4-3.7-8.4-8.4c0-4.7,3.7-8.4,8.4-8.4s8.4,3.7,8.4,8.4C39.1,34.6,35.2,38.3,30.5,38.3z"/>
	<circle class="st0" cx="44.3" cy="16.1" r="3"/>
</g>
</svg>
